<svg viewBox="0 0 20 20" fill="none" xmlns="http://www.w3.org/2000/svg">
  <path fill-rule="evenodd" clip-rule="evenodd" d="M8 2.25V2C8 1.44772 8.44772 1 9 1H11C11.5523 1 12 1.44772 12 2V2.25H14C15.5188 2.25 16.75 3.48122 16.75 5V16C16.75 17.5188 15.5188 18.75 14 18.75H6C4.48122 18.75 3.25 17.5188 3.25 16V5C3.25 3.48122 4.48122 2.25 6 2.25H8ZM4.75 5C4.75 4.30964 5.30964 3.75 6 3.75H14C14.6904 3.75 15.25 4.30964 15.25 5V16C15.25 16.6904 14.6904 17.25 14 17.25H6C5.30964 17.25 4.75 16.6904 4.75 16V5Z"
  />
  <path fill-rule="evenodd" clip-rule="evenodd" d="M6.25 7C6.25 6.58579 6.58579 6.25 7 6.25L13 6.25C13.4142 6.25 13.75 6.58579 13.75 7C13.75 7.41421 13.4142 7.75 13 7.75L7 7.75C6.58579 7.75 6.25 7.41421 6.25 7Z"
  />
  <path fill-rule="evenodd" clip-rule="evenodd" d="M6.25 14C6.25 13.5858 6.58579 13.25 7 13.25L13 13.25C13.4142 13.25 13.75 13.5858 13.75 14C13.75 14.4142 13.4142 14.75 13 14.75L7 14.75C6.58579 14.75 6.25 14.4142 6.25 14Z"
  />
  <path fill-rule="evenodd" clip-rule="evenodd" d="M6.25 10.5C6.25 10.0858 6.58579 9.75 7 9.75L13 9.75C13.4142 9.75 13.75 10.0858 13.75 10.5C13.75 10.9142 13.4142 11.25 13 11.25L7 11.25C6.58579 11.25 6.25 10.9142 6.25 10.5Z"
  />
</svg>