<svg viewBox="0 0 20 20" fill="currentColor" xmlns="http://www.w3.org/2000/svg">
    <!-- © 2023 Windward Fund. Licensed under CC-BY-SA https://creativecommons.org/licenses/by/4.0/ -->
    <path fill-rule="evenodd" clip-rule="evenodd" d="M1.25 4C1.25 2.48122 2.48122 1.25 4 1.25H16C17.5188 1.25 18.75 2.48122 18.75 4V16C18.75 17.5188 17.5188 18.75 16 18.75H4C2.48122 18.75 1.25 17.5188 1.25 16V4ZM4 2.75C3.30964 2.75 2.75 3.30964 2.75 4V16C2.75 16.6904 3.30964 17.25 4 17.25H16C16.6904 17.25 17.25 16.6904 17.25 16V4C17.25 3.30964 16.6904 2.75 16 2.75H4Z"
    />
    <path fill-rule="evenodd" clip-rule="evenodd" d="M5.83661 9.14218C6.23341 7.20617 7.94665 5.75 10 5.75C11.9683 5.75 13.624 7.08799 14.1073 8.90404C14.0816 8.93243 14.0543 8.96198 14.0255 8.99245C13.7797 9.2523 13.4418 9.56029 13.0516 9.79441C12.6602 10.0293 12.2585 10.1648 11.8659 10.1491C11.4933 10.1342 11.0408 9.98011 10.5303 9.46969C9.79075 8.7301 8.99327 8.38415 8.19404 8.35218C7.41473 8.32101 6.72267 8.59178 6.17663 8.9194C6.05831 8.9904 5.94484 9.06525 5.83661 9.14218ZM5.89267 11.096C6.37602 12.912 8.03176 14.25 10 14.25C12.0533 14.25 13.7665 12.7939 14.1634 10.8579C14.0552 10.9348 13.9417 11.0097 13.8234 11.0807C13.2773 11.4083 12.5853 11.679 11.806 11.6479C11.0068 11.6159 10.2093 11.2699 9.46968 10.5304C8.95927 10.0199 8.50674 9.86589 8.13409 9.85098C7.74153 9.83528 7.33984 9.97077 6.94838 10.2056C6.55818 10.4398 6.22035 10.7478 5.97455 11.0076C5.94573 11.0381 5.91841 11.0676 5.89267 11.096ZM10 4.25C6.82436 4.25 4.25 6.82436 4.25 10C4.25 13.1756 6.82436 15.75 10 15.75C13.1756 15.75 15.75 13.1756 15.75 10C15.75 6.82436 13.1756 4.25 10 4.25Z"
    />
</svg>
