<svg viewBox="0 0 20 20" fill="currentColor" xmlns="http://www.w3.org/2000/svg">
  <!-- © 2023 Windward Fund. Licensed under CC-BY-SA https://creativecommons.org/licenses/by/4.0/ -->
  <path fill-rule="evenodd" clip-rule="evenodd" d="M1.25 4C1.25 2.48122 2.48122 1.25 4 1.25H16C17.5188 1.25 18.75 2.48122 18.75 4V16C18.75 17.5188 17.5188 18.75 16 18.75H4C2.48122 18.75 1.25 17.5188 1.25 16V4ZM4 2.75C3.30964 2.75 2.75 3.30964 2.75 4V16C2.75 16.6904 3.30964 17.25 4 17.25H16C16.6904 17.25 17.25 16.6904 17.25 16V4C17.25 3.30964 16.6904 2.75 16 2.75H4Z"
  />
  <path d="M9 7C9 8.10457 8.10457 9 7 9C5.89543 9 5 8.10457 5 7C5 5.89543 5.89543 5 7 5C8.10457 5 9 5.89543 9 7Z"
  />
  <path d="M15 13C15 14.1046 14.1046 15 13 15C11.8954 15 11 14.1046 11 13C11 11.8954 11.8954 11 13 11C14.1046 11 15 11.8954 15 13Z"
  />
  <path d="M9 13C9 14.1046 8.10457 15 7 15C5.89543 15 5 14.1046 5 13C5 11.8954 5.89543 11 7 11C8.10457 11 9 11.8954 9 13Z"
  />
  <path d="M15 7C15 8.10457 14.1046 9 13 9C11.8954 9 11 8.10457 11 7C11 5.89543 11.8954 5 13 5C14.1046 5 15 5.89543 15 7Z"
  />
</svg>
