<svg viewBox="0 0 20 20" fill="currentColor" xmlns="http://www.w3.org/2000/svg">
    <path fill-rule="evenodd" clip-rule="evenodd" d="M2.25 4C2.25 2.48122 3.48122 1.25 5 1.25H15C16.5188 1.25 17.75 2.48122 17.75 4V16C17.75 17.5188 16.5188 18.75 15 18.75H5C3.48122 18.75 2.25 17.5188 2.25 16V15.5H3.75V16C3.75 16.6904 4.30964 17.25 5 17.25H15C15.6904 17.25 16.25 16.6904 16.25 16V4C16.25 3.30964 15.6904 2.75 15 2.75H5C4.30964 2.75 3.75 3.30964 3.75 4V4.5H2.25V4Z"
    />
    <path fill-rule="evenodd" clip-rule="evenodd" d="M1.25 7C1.25 6.58579 1.58579 6.25 2 6.25H4C4.41421 6.25 4.75 6.58579 4.75 7C4.75 7.41421 4.41421 7.75 4 7.75H3.75L3.75 12.25H4C4.41421 12.25 4.75 12.5858 4.75 13C4.75 13.4142 4.41421 13.75 4 13.75H2C1.58579 13.75 1.25 13.4142 1.25 13C1.25 12.5858 1.58579 12.25 2 12.25H2.25L2.25 7.75H2C1.58579 7.75 1.25 7.41421 1.25 7Z"
    />
    <path fill-rule="evenodd" clip-rule="evenodd" d="M11.2494 4.37592C11.594 4.60568 11.6871 5.07134 11.4574 5.41598L8.90139 9.24996H12.5C12.7766 9.24996 13.0307 9.4022 13.1613 9.64606C13.2918 9.88993 13.2775 10.1858 13.124 10.416L9.79071 15.416C9.56094 15.7606 9.09529 15.8538 8.75064 15.624C8.406 15.3942 8.31287 14.9286 8.54263 14.5839L11.0986 10.75H7.5C7.2234 10.75 6.96926 10.5977 6.83875 10.3539C6.70823 10.11 6.72254 9.81407 6.87596 9.58393L10.2093 4.58393C10.4391 4.23929 10.9047 4.14616 11.2494 4.37592Z"
    />
</svg>