<svg viewBox="0 0 20 20" fill="currentColor" xmlns="http://www.w3.org/2000/svg">
  <!-- © 2023 Windward Fund. Licensed under CC-BY-SA https://creativecommons.org/licenses/by/4.0/ -->
  <circle cx="5" cy="11" r="1"/>
  <circle cx="15" cy="11" r="1"/>
  <path fill-rule="evenodd" clip-rule="evenodd" d="M3.77639 2.77016C4.24222 1.83851 5.19445 1.25 6.23607 1.25H13.7639C14.8056 1.25 15.7578 1.83851 16.2236 2.77016L17.8385 6L19 6C19.5523 6 20 6.44772 20 7C20 7.55228 19.5523 8 19 8H18.7092C18.7363 8.15542 18.75 8.31337 18.75 8.47214V14C18.75 15.166 18.0243 16.1625 17 16.5625V18C17 18.5523 16.5523 19 16 19H15C14.4477 19 14 18.5523 14 18V16.75H6V18C6 18.5523 5.55228 19 5 19H4C3.44772 19 3 18.5523 3 18V16.5625C1.97566 16.1625 1.25 15.166 1.25 14L1.25 8.75L1.25 8.47214L1.25 8.47141V8H1C0.447715 8 0 7.55228 0 7C0 6.44772 0.447715 6 1 6H2.16147L3.77639 2.77016ZM2.75 8.75V14C2.75 14.6904 3.30964 15.25 4 15.25H5.375L5.72361 14.5528C5.893 14.214 6.23926 14 6.61803 14H13.382C13.7607 14 14.107 14.214 14.2764 14.5528L14.625 15.25H16C16.6904 15.25 17.25 14.6904 17.25 14V8.75L2.75 8.75ZM16.7865 7.25L3.21353 7.25L5.11803 3.44098C5.32977 3.0175 5.7626 2.75 6.23607 2.75H13.7639C14.2374 2.75 14.6702 3.0175 14.882 3.44098L16.7865 7.25Z"
  />
</svg>
