<svg viewBox="0 0 20 20" fill="currentColor" xmlns="http://www.w3.org/2000/svg">
  <!-- © 2023 Windward Fund. Licensed under CC-BY-SA https://creativecommons.org/licenses/by/4.0/ -->
  <path fill-rule="evenodd" clip-rule="evenodd" d="M10.0017 0.250124C10.2013 0.250583 10.3924 0.330514 10.5328 0.472237L19.5328 9.55541C19.7459 9.77044 19.8088 10.0925 19.6923 10.3719C19.5758 10.6513 19.3027 10.8333 19 10.8333H17.25V16.3335C17.25 16.9744 16.9954 17.5891 16.5422 18.0423C16.089 18.4955 15.4743 18.7501 14.8334 18.7501H5.16669C4.52575 18.7501 3.91106 18.4955 3.45785 18.0423C3.00463 17.5891 2.75002 16.9744 2.75002 16.3335H3.50002H4.25002C4.25002 16.5766 4.3466 16.8097 4.51851 16.9816C4.69042 17.1535 4.92357 17.2501 5.16669 17.2501H14.8334C15.0765 17.2501 15.3096 17.1535 15.4815 16.9816C15.6534 16.8097 15.75 16.5766 15.75 16.3335V10.0833C15.75 9.66908 16.0858 9.33329 16.5 9.33329H17.2011L9.99758 2.06323L2.75279 9.30802L3.52496 9.33371C3.92924 9.34716 4.25002 9.67879 4.25002 10.0833V16.3335H3.50002H2.75002V10.8088L0.975085 10.7497C0.676437 10.7398 0.41218 10.5535 0.302436 10.2756C0.192691 9.99764 0.258399 9.68108 0.469692 9.46979L9.46969 0.469792C9.61077 0.328717 9.80224 0.249665 10.0017 0.250124Z"
  />
  <path fill-rule="evenodd" clip-rule="evenodd" d="M10.75 6C10.75 5.58579 10.4142 5.25 10 5.25C9.58579 5.25 9.25 5.58579 9.25 6L9.25 11.1454C8.51704 11.4421 8 12.1607 8 13C8 14.1046 8.89543 15 10 15C11.1046 15 12 14.1046 12 13C12 12.1607 11.483 11.4421 10.75 11.1454L10.75 6Z"
  />
</svg>
