<?xml version="1.0" encoding="UTF-8"?>
<svg version="1.1" viewBox="0 0 1200 1200"  fill="currentColor" xmlns="http://www.w3.org/2000/svg">
 <path d="m1e3 825c-75.898 0-137.5 61.602-137.5 137.5s61.602 137.5 137.5 137.5 137.5-61.602 137.5-137.5-61.602-137.5-137.5-137.5zm0 75c34.5 0 62.5 28 62.5 62.5s-28 62.5-62.5 62.5-62.5-28-62.5-62.5 28-62.5 62.5-62.5z" fill-rule="evenodd"/>
 <path d="m250 825c-75.898 0-137.5 61.602-137.5 137.5s61.602 137.5 137.5 137.5 137.5-61.602 137.5-137.5-61.602-137.5-137.5-137.5zm0 75c34.5 0 62.5 28 62.5 62.5s-28 62.5-62.5 62.5-62.5-28-62.5-62.5 28-62.5 62.5-62.5z" fill-rule="evenodd"/>
 <path d="m900 925h-550c-20.699 0-37.5 16.801-37.5 37.5s16.801 37.5 37.5 37.5h550c20.699 0 37.5-16.801 37.5-37.5s-16.801-37.5-37.5-37.5z" fill-rule="evenodd"/>
 <path d="m1105 865s-47.648-63.5-67-89.301c-9.1992-12.25-21.449-21.898-35.5-27.949-39.852-17.051-162.75-69.699-162.75-69.699-4.6484-2-9.6484-3.0508-14.75-3.0508h-350c-4.0508 0-8.0508 0.64844-11.852 1.8984l-210.2 70.102c-16.898 5.6016-31.648 16.25-42.301 30.5-20.148 26.801-65.648 87.5-65.648 87.5-12.398 16.551-9.0508 40.102 7.5 52.5s40.102 9.0508 52.5-7.5l65.648-87.5c1.5-2.0508 3.6016-3.5508 6-4.3516 0.050781 0 204.45-68.148 204.45-68.148h336.2l155.65 66.699c2 0.85156 3.75 2.25 5.0508 4l67 89.301c12.398 16.551 35.949 19.898 52.5 7.5 16.551-12.398 19.898-35.949 7.5-52.5z" fill-rule="evenodd"/>
 <path d="m825 750c20.699 0 37.5-16.801 37.5-37.5v-125c0-20.699-16.801-37.5-37.5-37.5h-350c-20.699 0-37.5 16.801-37.5 37.5v125c0 20.699 16.801 37.5 37.5 37.5zm-37.5-75h-275v-50h275z" fill-rule="evenodd"/>
 <path d="m733.85 400-86.801-43.398c-8.6992-4.3516-18.25-6.6016-27.949-6.6016h-194.1c-16.602 0-32.449 6.6016-44.199 18.301-11.699 11.75-18.301 27.648-18.301 44.199v150c0 16.551 6.6016 32.449 18.301 44.199 11.75 11.699 27.602 18.301 44.199 18.301h450c16.602 0 32.449-6.6016 44.199-18.301 11.699-11.75 18.301-27.602 18.301-44.199v-100c0-34.5-28-62.5-62.5-62.5zm-117.7 25 86.801 43.398c8.6992 4.3516 18.25 6.6016 27.949 6.6016h131.6v75h-425v-125z" fill-rule="evenodd"/>
 <path d="m280.4 772-43-537.5c-0.75-8.8516-4.6016-17.199-10.898-23.5l-100-100c-14.602-14.648-38.398-14.648-53 0-14.648 14.602-14.648 38.398 0 53l90.199 90.25 41.898 523.75c1.6484 20.602 19.75 36.051 40.398 34.398 20.602-1.6484 36.051-19.75 34.398-40.398z" fill-rule="evenodd"/>
 <path d="m612.5 875h75c20.699 0 37.5-16.801 37.5-37.5s-16.801-37.5-37.5-37.5h-75c-20.699 0-37.5 16.801-37.5 37.5s16.801 37.5 37.5 37.5z" fill-rule="evenodd"/>
</svg>
