<?xml version="1.0" encoding="UTF-8"?>
<svg viewBox="220 220 750 750" fill="currentColor" xmlns="http://www.w3.org/2000/svg">
 <path d="m850.07 241.95c-6.0703 0-11.105 4.9219-11.105 11.105v106.03h-121.37l-110.04-106.37c-4.3516-4.1211-11.105-4.1211-15.344 0l-110.04 106.37h-121.37l-0.003906-106.03c0-6.0703-4.9219-11.105-11.105-11.105-64.465 0-116.91 52.441-116.91 116.91v467.06c0 72.938 59.312 132.25 132.25 132.25h469.57c72.938 0 132.25-59.312 132.25-132.25v-5.0391l-0.003906-373.16v-88.855c0.11328-64.465-52.328-116.91-116.79-116.91zm11.105 22.785c47.059 5.4961 83.586 45.57 83.586 94.121v393.55c-19.238-26.566-49.234-44.656-83.586-47.977zm-261.18 11.336 167.75 162.14h-335.49zm43.742 402.82h-87.48v-112.21h87.48zm11.105-134.31h-109.58c-6.0703 0-11.105 4.9219-11.105 11.105v123.2h-72.707l-0.003906-218.47h277.32v218.59h-72.707v-123.32c-0.23047-6.1797-5.1523-11.105-11.223-11.105zm-399.73-185.72c0-48.434 36.641-88.625 83.586-94.121v439.69c-34.352 3.207-64.465 21.41-83.586 47.977zm689.76 466.94c0 60.688-49.352 110.04-110.04 110.04h-469.69c-60.688 0-110.04-49.352-110.04-110.04v-5.0391c0-52.215 42.48-94.691 94.691-94.691 6.0703 0 11.105-4.9219 11.105-11.105l0.003906-333.78h98.355l-62.176 60.113c-3.207 3.0898-4.2383 7.9023-2.5195 12.137 1.7188 4.2383 5.7266 6.8711 10.305 6.8711h34.352v229.58c0 6.0703 4.9219 11.105 11.105 11.105h299.42c6.0703 0 11.105-4.9219 11.105-11.105l0.007812-229.46h34.352c4.4648 0 8.5859-2.75 10.305-6.8711 1.7188-4.2383 0.6875-8.9297-2.5195-12.137l-62.176-60.113h98.355v333.89c0 6.0703 4.9219 11.105 11.105 11.105 52.215 0 94.691 42.48 94.691 94.691l0.003906 4.8164z"/>
 <path d="m850.07 754.58h-500.14c-6.0703 0-11.105 4.9219-11.105 11.105v110.38c0 6.0703 4.9219 11.105 11.105 11.105h500.26c6.0703 0 11.105-4.9219 11.105-11.105v-110.38c-0.11719-6.1797-5.0391-11.105-11.223-11.105zm-10.992 110.38h-23.586v-20.496c0-6.0703-4.9219-11.105-11.105-11.105-6.0703 0-11.105 4.9219-11.105 11.105v20.496h-31.375v-9.5039c0-6.0703-4.9219-11.105-11.105-11.105-6.0703 0-11.105 4.9219-11.105 11.105v9.5039h-31.375v-20.496c0-6.0703-4.9219-11.105-11.105-11.105-6.0703 0-11.105 4.9219-11.105 11.105v20.496h-31.375v-9.5039c0-6.0703-4.9219-11.105-11.105-11.105-6.0703 0-11.105 4.9219-11.105 11.105v9.5039h-31.375v-20.496c0-6.0703-4.9219-11.105-11.105-11.105-6.0703 0-11.105 4.9219-11.105 11.105v20.496h-31.375v-9.5039c0-6.0703-4.9219-11.105-11.105-11.105-6.1836 0-11.105 4.9219-11.105 11.105v9.5039h-31.375v-20.496c0-6.0703-4.9219-11.105-11.105-11.105s-11.105 4.9219-11.105 11.105v20.496h-110.95v-88.168h478.05l-0.011719 88.168z"/>
 <path d="m411.53 853.28c17.863 0 32.402-14.543 32.402-32.52 0-17.863-14.543-32.402-32.402-32.402-17.863 0-32.402 14.543-32.402 32.402 0 17.977 14.539 32.52 32.402 32.52zm0-42.711c5.7266 0 10.305 4.582 10.305 10.305 0 5.7266-4.582 10.305-10.305 10.305-5.7266 0-10.305-4.582-10.305-10.305s4.6953-10.305 10.305-10.305z"/>
</svg>
