<svg viewBox="0 0 20 20" fill="none" xmlns="http://www.w3.org/2000/svg">
  <path fill-rule="evenodd" clip-rule="evenodd" d="M3.25754 2.89393C3.31033 2.52445 3.62677 2.25 4.00001 2.25H16C16.3732 2.25 16.6897 2.52445 16.7425 2.89393L18.7425 16.8939C18.7732 17.1092 18.709 17.3272 18.5666 17.4914C18.4241 17.6557 18.2174 17.75 18 17.75H2C1.78259 17.75 1.57587 17.6557 1.43341 17.4914C1.29096 17.3272 1.2268 17.1092 1.25754 16.8939L3.25754 2.89393ZM4.65048 3.75L2.86476 16.25H17.1352L15.3495 3.75H4.65048Z"
  />
  <path fill-rule="evenodd" clip-rule="evenodd" d="M12.9843 17.7486C12.5709 17.7744 12.2148 17.4602 12.1889 17.0468L11.3139 3.04681C11.2881 2.6334 11.6023 2.27732 12.0157 2.25149C12.4291 2.22565 12.7852 2.53983 12.811 2.95324L13.686 16.9532C13.7119 17.3666 13.3977 17.7227 12.9843 17.7486Z"
  />
  <path fill-rule="evenodd" clip-rule="evenodd" d="M7.98426 2.25149C8.39767 2.27732 8.71185 2.6334 8.68601 3.04681L7.81101 17.0468C7.78518 17.4602 7.4291 17.7744 7.01569 17.7486C6.60228 17.7227 6.2881 17.3666 6.31393 16.9532L7.18894 2.95324C7.21477 2.53983 7.57085 2.22565 7.98426 2.25149Z"
  />
  <path fill-rule="evenodd" clip-rule="evenodd" d="M2.75 7C2.75 6.58579 3.08579 6.25 3.5 6.25L16.5 6.25C16.9142 6.25 17.25 6.58579 17.25 7C17.25 7.41421 16.9142 7.75 16.5 7.75L3.5 7.75C3.08579 7.75 2.75 7.41421 2.75 7Z"
  />
  <path fill-rule="evenodd" clip-rule="evenodd" d="M2.25 12C2.25 11.5858 2.58579 11.25 3 11.25L17 11.25C17.4142 11.25 17.75 11.5858 17.75 12C17.75 12.4142 17.4142 12.75 17 12.75L3 12.75C2.58579 12.75 2.25 12.4142 2.25 12Z"
  />
</svg>