<svg viewBox="0 0 20 20" fill="none" xmlns="http://www.w3.org/2000/svg">
  <path fill-rule="evenodd" clip-rule="evenodd" d="M6.99898 2.75C6.30912 2.75 5.75 3.30915 5.75 4V16C5.75 16.6909 6.30912 17.25 6.99898 17.25H13.001C13.6909 17.25 14.25 16.6909 14.25 16V4C14.25 3.30915 13.6909 2.75 13.001 2.75H6.99898ZM4.25 4C4.25 2.48171 5.4797 1.25 6.99898 1.25H13.001C14.5203 1.25 15.75 2.48171 15.75 4V16C15.75 17.5183 14.5203 18.75 13.001 18.75H6.99898C5.4797 18.75 4.25 17.5183 4.25 16V4Z"
  />
  <path fill-rule="evenodd" clip-rule="evenodd" d="M4.25 6C4.25 5.58579 4.58579 5.25 5 5.25H15C15.4142 5.25 15.75 5.58579 15.75 6C15.75 6.41421 15.4142 6.75 15 6.75H5C4.58579 6.75 4.25 6.41421 4.25 6Z"
  />
  <path fill-rule="evenodd" clip-rule="evenodd" d="M5.75 10C5.75 10.4142 5.41421 10.75 5 10.75H3C2.58579 10.75 2.25 10.4142 2.25 10C2.25 9.58579 2.58579 9.25 3 9.25H5C5.41421 9.25 5.75 9.58579 5.75 10Z"
  />
  <path d="M13 10C13 10.5523 12.5523 11 12 11C11.4477 11 11 10.5523 11 10C11 9.44772 11.4477 9 12 9C12.5523 9 13 9.44772 13 10Z"
  />
  <path d="M13 14C13 14.5523 12.5523 15 12 15C11.4477 15 11 14.5523 11 14C11 13.4477 11.4477 13 12 13C12.5523 13 13 13.4477 13 14Z"
  />
</svg>