<svg width="312" height="312" viewBox="0 0 312 312" fill="none" xmlns="http://www.w3.org/2000/svg">
<path d="M252.622 77.376L254.807 271.128L184.607 270.816L56.0625 220.272L60.1185 211.224H66.3585L69.1665 205.92L68.2305 199.68L61.9905 196.872L62.3025 192.192L61.0545 186.888V183.768L64.1745 182.208L68.2305 177.84L70.1025 171.288L69.1665 161.304L73.8465 155.064L83.2065 148.824L74.7825 141.336L73.5345 134.16L67.6065 124.176L66.6705 113.88L69.1665 110.76L66.3585 98.28L67.6065 83.616L65.1105 77.688L66.3585 73.944L71.6625 72.384L77.9025 73.944L81.9585 78.312L85.7025 77.688L88.1985 71.136L90.0705 39L252.622 41.184V77.376Z" stroke="#F2C72E" stroke-width="2"/>
</svg>
