<svg width="312" height="312" viewBox="0 0 312 312" fill="none" xmlns="http://www.w3.org/2000/svg">
<path d="M123.558 56.8159L150.328 58.4114L151.123 63.1977L157.219 62.6659L157.484 58.4114L297.692 58.9432L299.813 157.861L298.487 179.134L295.042 183.655L292.921 196.95L288.416 198.545L290.536 195.355L286.825 193.493H275.163L264.562 198.545L257.67 191.632L253.96 199.875L241.768 196.95L240.443 202.268L236.467 200.141L227.19 205.725L218.709 200.407V193.227L211.553 189.77L217.649 198.014L215.793 202.268L218.444 204.13L215.263 206.523L202.806 204.661L194.855 210.511L193 208.384L190.084 209.448L180.808 205.725L172.326 207.852L168.086 210.511L160.664 208.384L151.123 210.245H139.726L136.81 206.523L136.015 200.673L121.703 217.691L115.607 219.02L105.005 227.264L100.764 229.125L97.5838 225.402L90.9577 229.923L89.1024 228.859L84.3316 234.709L79.2958 233.114L70.5493 237.634L51.7312 249.6L47.2254 249.334L44.575 254.652L43.5148 253.057L35.0334 257.577L32.383 254.918L25.7569 258.375L14.625 239.761L50.671 218.489L41.6595 203.066L51.9962 53.625L123.558 56.8159Z" stroke="#F2C72E" stroke-width="2"/>
</svg>
