<svg width="312" height="312" viewBox="0 0 312 312" fill="none" xmlns="http://www.w3.org/2000/svg">
<path d="M218.1 259.002C219.08 258.872 219.95 259.634 219.95 260.622V260.622C219.95 261.186 219.659 261.71 219.18 262.008L218.141 262.655C216.59 263.622 214.703 262.053 215.371 260.351V260.351C215.623 259.709 216.203 259.254 216.887 259.163L218.1 259.002ZM251.09 257.37L245.217 259.499C245.055 259.558 244.887 259.595 244.716 259.611L238.856 260.142L247.476 258.201L251.09 257.37ZM254.637 258.103C254.497 258.168 254.351 258.217 254.2 258.249L249.49 259.238C249.312 259.275 249.144 259.139 249.144 258.957V258.957C249.144 258.836 249.219 258.728 249.332 258.687L268.051 251.824L254.637 258.103ZM284.501 233.34C285.673 233.52 286.087 234.997 285.177 235.759L277.778 241.958C276.363 243.142 277.201 245.447 279.046 245.447V245.447C279.652 245.447 280.225 245.168 280.6 244.691L284.368 239.89C284.771 239.376 285.4 239.091 286.052 239.128L289.428 239.315C289.761 239.333 290.052 239.094 290.1 238.764V238.764C290.177 238.225 290.848 238.02 291.213 238.425L292.189 239.505C292.555 239.911 293.133 240.051 293.644 239.856L302.25 236.575L269.997 251.824V251.824C270.538 251.51 270.199 250.681 269.593 250.835L235.126 259.606C234.598 259.74 234.609 260.495 235.142 260.613V260.613C235.708 260.738 235.671 261.557 235.097 261.632L230.752 262.197C229.852 262.314 229.506 261.062 230.34 260.701V260.701C230.902 260.457 230.979 259.69 230.476 259.339L229.49 258.65C229.089 258.37 228.573 258.311 228.118 258.492L226.974 258.948C226.477 259.147 226.241 259.716 226.452 260.208V260.208C226.686 260.752 226.372 261.375 225.795 261.511L223.87 261.962C222.898 262.19 221.906 261.667 221.547 260.735L221.166 259.748C220.927 259.128 221.012 258.429 221.392 257.884L224.697 253.146C225.036 252.66 225.574 252.349 226.165 252.298L231.018 251.877C231.363 251.847 231.627 251.559 231.627 251.213V250.254C231.627 250.015 231.917 249.895 232.086 250.064V250.064C232.242 250.219 232.509 250.132 232.542 249.914L232.722 248.751C232.836 248.01 233.773 247.754 234.248 248.334L234.369 248.481C234.856 249.074 235.808 248.877 236.02 248.139L236.304 247.147C236.496 246.477 237.126 246.029 237.822 246.068L240.603 246.222C241.231 246.256 241.819 245.915 242.101 245.354L242.726 244.106C242.878 243.804 243.275 243.729 243.526 243.954L244.29 244.639C244.576 244.896 245.002 244.556 244.815 244.22V244.22C244.668 243.955 244.913 243.645 245.204 243.726L250.448 245.19C251.03 245.353 251.654 245.243 252.146 244.893L254.794 243.007C255.099 242.79 255.459 242.662 255.833 242.64L272.973 241.604C273.388 241.579 273.786 241.425 274.11 241.163L283.426 233.63C283.727 233.386 284.118 233.281 284.501 233.34V233.34ZM296.55 227.425C296.46 227.425 296.371 227.398 296.295 227.348V227.348C295.989 227.144 296.034 226.681 296.374 226.539L296.567 226.459C297.075 226.248 297.504 226.89 297.114 227.278V227.278C297.02 227.372 296.893 227.425 296.76 227.425H296.55ZM42.5102 135.969C43.3824 136.37 43.6453 137.484 43.0444 138.233L42.8976 138.416C42.406 139.029 41.5074 139.12 40.9031 138.618V138.618C40.5472 138.322 40.3597 137.87 40.4017 137.409L40.423 137.176C40.5155 136.161 41.5844 135.543 42.5102 135.969V135.969ZM142.134 92.6559C142.11 92.6678 142.088 92.6825 142.067 92.6997V92.6997C141.778 92.9475 141.371 92.5802 141.589 92.267L141.924 91.785C142.148 91.4623 142.654 91.6208 142.654 92.0137V92.1265C142.654 92.2919 142.56 92.4431 142.412 92.517L142.134 92.6559ZM147.496 78.0251C147.599 77.9956 147.71 78.0129 147.8 78.0724V78.0724C148.066 78.2491 147.995 78.6573 147.685 78.7345L146.007 79.153C145.706 79.2279 145.471 78.8938 145.643 78.6365V78.6365C145.688 78.5698 145.755 78.5211 145.832 78.4991L147.496 78.0251ZM151.427 75.5741C151.876 75.434 152.191 76.0142 151.829 76.3151V76.3151L150.659 77.4822C150.195 77.9453 149.403 77.7256 149.243 77.0895L149.228 77.0281C149.127 76.628 149.357 76.2191 149.751 76.0964L151.427 75.5741ZM191.174 44.0782C191.447 43.9445 191.748 43.875 192.052 43.875H242.417C243.522 43.875 244.417 44.7704 244.417 45.875V46.6477L244.145 62.941C244.141 63.1678 244.176 63.3935 244.248 63.6085L246.772 71.1602C246.869 71.4505 246.898 71.7594 246.857 72.0628L245.567 81.5824C245.542 81.7668 245.492 81.9469 245.417 82.1173L241.892 90.151C241.726 90.5296 241.681 90.9504 241.764 91.3555L244.331 103.897C244.388 104.175 244.385 104.462 244.322 104.739L242.542 112.599C242.496 112.806 242.502 113.021 242.56 113.225V113.225C242.793 114.038 243.743 114.396 244.455 113.94L245.063 113.55C246.022 112.935 247.303 113.355 247.713 114.418L248.184 115.637C248.267 115.853 248.312 116.083 248.317 116.314L249.138 155.053C249.142 155.241 249.12 155.428 249.071 155.609L240.581 187.565C240.544 187.705 240.522 187.849 240.516 187.994L238.889 226.652C238.868 227.149 239.033 227.637 239.353 228.018L240.175 229.002C240.95 229.929 240.732 231.326 239.712 231.974L234.124 235.52C233.202 236.105 232.919 237.322 233.49 238.253L234.676 240.188C235.168 240.992 235.033 242.03 234.351 242.68L229.688 247.128C229.34 247.46 229.197 247.953 229.314 248.42V248.42C229.509 249.198 228.98 249.971 228.184 250.07L225.563 250.397C225.354 250.423 225.168 250.542 225.059 250.722V250.722C224.633 251.415 223.567 250.933 223.808 250.156L226.768 240.608C226.855 240.326 226.877 240.027 226.832 239.736L225.078 228.367C224.926 227.38 223.669 227.053 223.055 227.84V227.84C222.849 228.104 222.77 228.446 222.838 228.774L224.573 237.079C224.93 238.788 223.079 240.102 221.584 239.201L196.534 224.119C196.21 223.924 195.948 223.641 195.778 223.302L194.713 221.178C194.492 220.737 194.116 220.393 193.657 220.213L185.93 217.178C185.458 216.992 185.073 216.633 184.855 216.174L182.874 212.003C182.754 211.751 182.688 211.477 182.681 211.198L182.448 202.381C182.427 201.592 181.945 200.89 181.216 200.587L176.428 198.597C175.985 198.413 175.623 198.076 175.408 197.647L173.212 193.268C172.885 192.617 172.23 192.194 171.502 192.166L11.7987 185.915C10.6755 185.871 9.80917 184.911 9.88096 183.789L10.5167 173.857C10.5589 173.198 10.9238 172.602 11.4918 172.265L33.5498 159.172C33.8064 159.019 34.0257 158.811 34.1916 158.563L38.1044 152.711C38.2907 152.432 38.544 152.205 38.8411 152.049L42.9727 149.891C43.7244 149.499 44.1467 148.674 44.0265 147.835L42.9306 140.185C42.8698 139.761 42.9469 139.328 43.1505 138.951L43.7476 137.845C44.3046 136.814 43.8589 135.526 42.7833 135.06L39.6343 133.695C38.8821 133.369 38.4052 132.617 38.4308 131.797L38.6153 125.911C38.645 124.963 39.3374 124.166 40.2726 124.003L63.9298 119.901C64.1394 119.864 64.3534 119.862 64.5639 119.893L86.198 123.089C86.5702 123.144 86.9193 123.303 87.2052 123.547L91.8309 127.501C92.3181 127.917 92.9753 128.075 93.5984 127.925L100.227 126.33C100.518 126.259 100.822 126.256 101.115 126.319L113.201 128.918C114.153 129.123 115.115 128.612 115.478 127.707L115.546 127.537C115.804 126.893 116.379 126.428 117.063 126.311L123.476 125.208C123.835 125.146 124.171 124.988 124.446 124.749L133.94 116.528C134.355 116.168 134.901 115.995 135.448 116.05L139.157 116.419C139.783 116.482 140.402 116.246 140.828 115.783L142.932 113.494C143.112 113.298 143.221 113.047 143.242 112.782L143.433 110.304C143.452 110.057 143.154 109.92 142.979 110.095V110.095C142.834 110.239 142.587 110.173 142.534 109.976L140.064 100.861C139.945 100.424 140.055 99.956 140.357 99.6177L141.283 98.5792C141.623 98.1972 142.253 98.361 142.364 98.8605V98.8605C142.48 99.3787 143.146 99.5288 143.473 99.1102L146.887 94.7322C147.435 94.0304 146.809 93.0272 145.938 93.2101V93.2101C145.048 93.397 144.425 92.3512 145.013 91.6574L145.313 91.3041C145.792 90.7399 145.598 89.8743 144.924 89.5688L144.112 89.2008C143.551 88.9465 142.898 88.9992 142.385 89.3402L141.9 89.6627C140.851 90.3604 139.426 89.9253 138.945 88.7604L138.557 87.8212C138.191 86.9359 138.505 85.9158 139.304 85.3884L155.582 74.6501C155.856 74.469 156.082 74.2229 156.239 73.9337L161.38 64.4495C161.499 64.2287 161.66 64.0325 161.852 63.871L177.222 50.9642C177.346 50.8596 177.483 50.7705 177.629 50.699L191.174 44.0782Z" stroke="#F2C72E" stroke-width="2"/>
</svg>
