<svg width="312" height="312" viewBox="0 0 312 312" fill="none" xmlns="http://www.w3.org/2000/svg">
<path d="M280.979 214.451V216.109H280.702L279.597 215.004L280.979 214.451ZM284.017 186.274H282.36L284.294 182.959V185.445L284.017 186.274ZM287.056 179.367L286.78 178.815L288.714 176.605L288.161 176.881L287.056 179.367ZM296.173 156.715L290.648 173.014L288.714 174.671L287.056 172.185L285.675 174.119L287.056 174.671L284.017 176.881L282.084 188.76L280.979 186.826L279.045 190.141L276.835 182.682L279.597 169.975L283.465 166.936L284.017 161.411L288.161 160.03L285.675 157.268L288.99 152.847L298.106 152.019L296.173 156.715ZM299.487 157.268L298.383 158.096H297.001L302.25 150.637L299.487 157.268ZM212.745 104.78L216.889 97.3213L222.69 98.15L226.557 101.741L224.9 105.885L232.635 109.2L240.094 115.554V122.184L236.779 124.118L236.226 126.88L234.016 126.604L231.53 136.825L229.596 135.444L232.635 138.206L230.149 139.311L241.199 136.825L242.027 139.311L240.094 140.14L244.237 144.836L251.42 147.599L256.116 147.322L258.602 152.847L268.271 157.544V161.411L264.956 160.03L266.337 169.423L260.812 166.66L259.431 168.87L244.237 150.085L240.094 146.77L237.607 147.322L244.237 150.637L258.602 169.423L266.89 172.185L263.575 174.119L268.824 174.948L268.271 182.959L263.299 177.434L262.194 182.682L264.68 184.34L261.641 185.445L250.039 174.119L249.486 174.948L258.879 185.445L264.127 186.826L266.89 190.417L266.061 192.075L268.271 192.351L266.89 196.219L263.299 197.6L255.011 187.379L251.972 188.76L247.552 182.959L244.79 186.826L242.304 182.959L241.199 184.893L234.016 182.13L233.464 184.064L240.094 185.445L242.027 184.34L243.961 186.826L251.972 190.141L254.182 188.76L255.011 194.837L261.365 198.705L259.431 202.849L264.68 201.467L267.442 202.849L266.89 198.705L278.216 200.086L283.465 216.109L279.045 207.821V216.109L276.282 214.175L276.835 216.109L206.667 216.937H135.395L12.1875 209.479L30.9725 204.23L33.4587 200.086L40.365 198.705L47.5475 188.76L59.4262 182.682L72.41 172.185L73.2388 179.367L85.1175 186.826L92.5762 181.577L97.5487 185.445L109.704 182.682L110.532 178.815L114.4 180.196L121.859 176.881L124.345 178.815L129.87 174.948L132.356 170.251L130.422 167.489L147.274 142.626L152.522 128.261L156.39 129.919L157.219 134.063L164.677 136.549L174.622 118.04L179.042 120.526L193.96 104.78L196.722 92.625L212.745 104.78Z" stroke="#F2C72E" stroke-width="2"/>
</svg>
