<svg width="312" height="312" viewBox="0 0 312 312" fill="none" xmlns="http://www.w3.org/2000/svg">
<path d="M227.702 79.4235L224.582 80.3595L223.958 85.9755L218.03 93.7755L203.99 104.696L194.63 105.32L189.638 112.184L189.014 130.904L183.71 142.76L185.27 145.256L179.03 155.24L176.222 165.848L169.046 173.336L166.862 185.192L162.806 191.432L161.558 218.888L159.062 224.192L155.63 250.712L151.886 254.456L149.39 265.064L150.326 270.055L156.254 281.288L93.5417 278.48L90.7337 272.24L94.7897 191.432L89.7977 183.632H86.3657L81.3737 189.559L80.4377 185.192L85.7417 166.471L80.4377 135.896L84.8057 120.92L89.1737 115.928L88.5497 103.136L91.9817 93.4635L85.4297 74.4315L89.1737 56.6475L85.7417 49.1595L89.1737 39.7995L88.5497 32.9355L230.51 31.6875L228.326 36.0555L230.198 44.4795L222.398 54.7755L220.526 61.6395L227.702 77.2395V79.4235Z" stroke="#F2C72E" stroke-width="2"/>
</svg>
